HIERARCHY
ROOT SpineBase
{
  OFFSET 0.000000 0.000000 0.000000
  CHANNELS 6 Xposition Yposition Zposition Zrotation Xrotation Yrotation
  JOINT SpineMid
  {
    OFFSET -0.000000 33.779520 0.000000
    CHANNELS 3 Zrotation Xrotation Yrotation
    JOINT SpineShoulder
    {
      OFFSET -0.064736 25.103305 -1.009227
      CHANNELS 3 Zrotation Xrotation Yrotation
      JOINT Neck
      {
        OFFSET -0.012441 8.287297 -0.716004
        CHANNELS 3 Zrotation Xrotation Yrotation
        JOINT Head
        {
          OFFSET -0.076566 10.038656 6.405973
          CHANNELS 3 Zrotation Xrotation Yrotation
          End Site
          {
            OFFSET 0 0 0
          }
        }
      }
      JOINT ShoulderLeft
      {
        OFFSET -15.783010 -5.833840 0.051992
        CHANNELS 3 Zrotation Xrotation Yrotation
        JOINT ElbowLeft
        {
          OFFSET -8.776810 -18.104055 11.605078
          CHANNELS 3 Zrotation Xrotation Yrotation
          JOINT WristLeft
          {
            OFFSET 1.884613 10.546421 34.619595
            CHANNELS 3 Zrotation Xrotation Yrotation
            JOINT HandLeft
            {
              OFFSET 0.711323 -7.438589 4.129874
              CHANNELS 3 Zrotation Xrotation Yrotation
              JOINT HandTipLeft
              {
                OFFSET -1.344318 -3.903598 -1.565783
                CHANNELS 3 Zrotation Xrotation Yrotation
                End Site
                {
                  OFFSET 0 0 0
                }
              }
              JOINT ThumbLeft
              {
                OFFSET -0.259292 -4.666112 -1.944053
                CHANNELS 3 Zrotation Xrotation Yrotation
                End Site
                {
                  OFFSET 0 0 0
                }
              }
            }
          }
        }
      }
      JOINT ShoulderRight
      {
        OFFSET 15.654882 -6.011053 -8.552748
        CHANNELS 3 Zrotation Xrotation Yrotation
        JOINT ElbowRight
        {
          OFFSET 9.569690 -28.601544 -0.978444
          CHANNELS 3 Zrotation Xrotation Yrotation
          JOINT WristRight
          {
            OFFSET 3.651168 -21.593453 0.834375
            CHANNELS 3 Zrotation Xrotation Yrotation
            JOINT HandRight
            {
              OFFSET 0.939386 -3.280480 1.688818
              CHANNELS 3 Zrotation Xrotation Yrotation
              JOINT HandTipRight
              {
                OFFSET 0.551480 -5.644771 0.542569
                CHANNELS 3 Zrotation Xrotation Yrotation
                End Site
                {
                  OFFSET 0 0 0
                }
              }
              JOINT ThumbRight
              {
                OFFSET -4.753859 2.274808 -1.213222
                CHANNELS 3 Zrotation Xrotation Yrotation
                End Site
                {
                  OFFSET 0 0 0
                }
              }
            }
          }
        }
      }
    }
  }
  JOINT HipLeft
  {
    OFFSET -7.634752 1.101793 -1.253043
    CHANNELS 3 Zrotation Xrotation Yrotation
    JOINT KneeLeft
    {
      OFFSET -4.843718 -36.443676 2.512795
      CHANNELS 3 Zrotation Xrotation Yrotation
      JOINT AnkleLeft
      {
        OFFSET -4.680496 -33.368140 2.993511
        CHANNELS 3 Zrotation Xrotation Yrotation
        JOINT FootLeft
        {
          OFFSET -2.265133 -1.769055 -12.494396
          CHANNELS 3 Zrotation Xrotation Yrotation
          End Site
          {
            OFFSET 0 0 0
          }
        }
      }
    }
  }
  JOINT HipRight
  {
    OFFSET 7.584936 2.230634 -5.898483
    CHANNELS 3 Zrotation Xrotation Yrotation
    JOINT KneeRight
    {
      OFFSET -0.621544 -32.865754 -4.664907
      CHANNELS 3 Zrotation Xrotation Yrotation
      JOINT AnkleRight
      {
        OFFSET -1.331149 -35.058825 -7.067551
        CHANNELS 3 Zrotation Xrotation Yrotation
        JOINT FootRight
        {
          OFFSET -2.595506 -1.634001 -12.390748
          CHANNELS 3 Zrotation Xrotation Yrotation
          End Site
          {
            OFFSET 0 0 0
          }
        }
      }
    }
  }
}
MOTION
Frames: 11
Frame Time: 0.033333
0.918648 76.880284 205.249866 -0.310068 2.125878 15.826645 0.112930 0.107080 -15.822602 0.401798 0.116407 0.029609 -3.162361 -6.383482 1.659729 0.000000 0.000000 0.000000 15.065879 25.990911 -9.533553 -15.001885 47.965380 -2.496960 132.208147 -63.907020 135.474610 19.038186 -7.286260 -11.128552 0.000000 0.000000 0.000000 0.000000 0.000000 0.000000 3.912077 -1.954421 0.132426 -13.086969 -5.420062 -1.689502 40.214326 -6.104514 12.604191 -30.314365 -1.195430 -8.626696 0.000000 0.000000 0.000000 0.000000 0.000000 0.000000 16.350143 -3.295354 -14.327444 -22.690712 -12.912365 -1.170593 6.195579 9.901020 -1.394437 0.000000 0.000000 0.000000 1.287655 -2.205404 -15.990522 -2.630120 -4.285119 0.550499 1.142358 3.913448 -0.415269 0.000000 0.000000 0.000000
0.768371 77.155727 205.237495 -0.060544 2.608504 18.015780 0.157575 -0.000510 -18.000497 0.322868 0.078973 0.036578 -3.282611 -6.534631 1.546703 0.000000 0.000000 0.000000 18.921628 29.636428 -11.251604 -14.259885 27.748062 -6.622772 161.368922 -62.444014 158.593485 36.107916 9.298190 -23.123931 0.000000 0.000000 0.000000 0.000000 0.000000 0.000000 4.306622 -1.185063 0.463209 -14.576703 -8.979632 -3.003421 34.900367 -12.267901 8.228982 -23.694861 1.032329 -3.438509 0.000000 0.000000 0.000000 0.000000 0.000000 0.000000 18.715681 -3.684338 -16.272226 -25.896071 -15.582207 -1.634153 6.273524 11.554755 1.006095 0.000000 0.000000 0.000000 0.825873 -3.494677 -18.195933 -2.890167 -3.631493 0.604251 0.716038 4.569996 1.894241 0.000000 0.000000 0.000000
0.593789 77.121938 205.485118 0.195918 2.761429 24.157723 0.185871 0.078315 -24.138580 0.228771 0.053574 0.037767 -3.215051 -6.032032 1.410581 0.000000 0.000000 0.000000 22.458935 32.698259 -13.004785 -13.977822 -0.174248 -10.486365 168.505270 -69.663135 165.786069 56.441916 -22.505019 -34.858246 0.000000 0.000000 0.000000 0.000000 0.000000 0.000000 3.554461 -0.050606 0.863662 -13.620630 -15.002134 -4.885789 30.611393 -9.119851 5.110739 -21.640481 -1.486191 -2.284034 0.000000 0.000000 0.000000 0.000000 0.000000 0.000000 17.942629 -4.863545 -22.380881 -25.130682 -16.523765 -1.580447 5.530849 11.512179 3.167552 0.000000 0.000000 0.000000 -0.140776 -4.857619 -24.375465 -3.199475 -2.799493 0.688227 0.529981 4.823977 4.003397 0.000000 0.000000 0.000000
0.256883 76.959583 205.968372 0.243988 2.613030 26.586105 0.422676 0.443278 -26.565150 0.278943 0.239343 0.047050 -2.795531 -5.403952 1.076694 0.000000 0.000000 0.000000 25.061246 34.590704 -14.316346 -16.747031 -28.462160 -10.308519 -97.643848 -83.266305 -96.509728 48.886016 -63.028328 -106.582488 0.000000 0.000000 0.000000 0.000000 0.000000 0.000000 2.037260 1.157274 1.399112 -10.804656 -19.265958 -6.052145 36.470769 -4.067795 7.601268 -33.524609 -4.657556 -5.188414 0.000000 0.000000 0.000000 0.000000 0.000000 0.000000 15.407090 -5.828436 -24.815663 -21.589486 -14.013325 -0.937689 3.839885 10.079215 5.395835 0.000000 0.000000 0.000000 -1.085098 -5.659367 -26.799770 -2.047707 -1.280940 0.462749 -0.615065 4.303779 6.206064 0.000000 0.000000 0.000000
-0.202091 76.733168 206.630343 0.105412 2.211807 26.078399 0.566787 0.651962 -26.059067 0.219139 -0.108649 0.037091 -3.087185 -4.273803 1.390380 0.000000 0.000000 0.000000 25.790226 35.232953 -14.598568 -17.700136 -48.492664 -10.723354 -54.445459 -70.659094 -46.742258 75.358002 -37.574145 172.033868 0.000000 0.000000 0.000000 0.000000 0.000000 0.000000 0.301254 3.330497 1.992648 -7.176570 -27.938856 -7.890419 36.758421 3.007135 5.996216 -45.157206 -10.802763 -6.990474 0.000000 0.000000 0.000000 0.000000 0.000000 0.000000 10.542925 -6.756003 -24.428014 -14.325077 -8.054730 -0.071814 0.640901 7.192042 7.785485 0.000000 0.000000 0.000000 -0.970897 -5.484329 -26.267204 -0.952427 0.276903 0.167939 -1.758657 2.645151 8.472759 0.000000 0.000000 0.000000
-0.748919 76.449601 207.386828 -0.153418 1.578108 22.599563 0.460218 0.656366 -22.589788 0.144656 -0.391646 0.013828 -4.033235 -3.255533 2.277406 0.000000 0.000000 0.000000 26.285362 37.534448 -17.057251 -15.175703 -60.893996 -6.622298 -29.249086 -65.077010 -21.384315 88.950041 -35.552918 143.967942 0.000000 0.000000 0.000000 0.000000 0.000000 0.000000 -2.223461 9.448237 4.027250 -3.343845 -44.244280 -11.759525 36.555798 13.258363 2.401019 -59.415464 -19.282805 -10.474593 0.000000 0.000000 0.000000 0.000000 0.000000 0.000000 4.078214 -8.326129 -21.131150 -4.172951 1.312752 -0.240227 -3.866779 2.616044 9.982577 0.000000 0.000000 0.000000 1.519328 -3.900000 -22.873089 -1.957869 -0.217860 0.292963 -1.997786 1.058873 10.438842 0.000000 0.000000 0.000000
-1.201693 76.189979 208.263154 -0.405890 0.958475 16.979574 0.270790 0.147457 -16.978539 0.190016 -1.178561 0.006551 -5.649193 -1.877990 3.538079 0.000000 0.000000 0.000000 20.480222 31.232056 -10.936851 -13.460461 -51.503095 -8.187738 -26.339843 -60.316678 -17.629366 132.238885 -41.722928 125.316530 0.000000 0.000000 0.000000 0.000000 0.000000 0.000000 -4.212612 12.353098 4.787967 2.602390 -55.723945 -11.744737 28.055508 18.796464 -0.206319 -62.531827 -30.008048 -11.788581 0.000000 0.000000 0.000000 0.000000 0.000000 0.000000 0.596158 -9.801290 -15.624485 2.598141 7.807805 -1.322571 -6.841717 -0.842697 11.890411 0.000000 0.000000 0.000000 2.022604 -2.524202 -17.221226 -0.564510 2.898321 -0.155058 -3.007600 -3.107289 12.544279 0.000000 0.000000 0.000000
-1.502919 75.901107 208.958281 -0.763079 -0.604516 6.515175 0.013910 0.049168 -6.550684 0.067124 -0.743235 -0.034351 -8.140484 -1.616965 5.745313 0.000000 0.000000 0.000000 16.753815 24.654977 -6.012391 -12.122050 -40.706660 -8.892598 -20.164137 -61.322761 -14.055165 155.772745 -50.631721 111.958608 0.000000 0.000000 0.000000 0.000000 0.000000 0.000000 -5.133981 10.654900 4.055204 7.922487 -62.922820 -10.413085 21.607842 24.280418 -1.759179 -61.212005 -38.079603 -12.088983 0.000000 0.000000 0.000000 0.000000 0.000000 0.000000 -0.444015 -11.335584 -5.058316 7.949624 13.585306 -2.921225 -8.922459 -3.821763 13.355684 0.000000 0.000000 0.000000 2.758381 1.298943 -6.831815 0.231751 4.089649 -0.400498 -3.342114 -6.752802 14.156598 0.000000 0.000000 0.000000
-1.823584 75.643596 209.499263 -1.357568 -2.207279 -8.523858 0.059514 -0.168790 8.435761 0.035734 -0.829997 -0.066603 -11.660973 -2.377797 8.701712 0.000000 0.000000 0.000000 14.847242 20.457311 -2.966626 -11.296756 -28.511276 -8.273523 -7.807252 -66.339781 -6.782449 -133.439900 -71.525368 118.262252 0.000000 0.000000 0.000000 0.000000 0.000000 0.000000 -4.782355 5.885148 1.691778 16.022426 -64.179936 -5.393509 14.279796 24.673475 -1.214742 -49.237719 -39.012634 -4.784735 0.000000 0.000000 0.000000 0.000000 0.000000 0.000000 2.181589 -12.638676 10.495915 10.250177 17.901976 -4.321695 -9.594418 -5.868993 14.934736 0.000000 0.000000 0.000000 1.908049 6.560345 8.120675 0.581565 3.636515 -0.461962 -3.330906 -9.859160 15.767263 0.000000 0.000000 0.000000
-2.323532 75.535993 209.333251 -2.463736 -4.162036 -22.217870 0.104396 -0.271375 22.012054 0.030714 -0.826703 -0.125858 -15.689931 -2.887279 12.656157 0.000000 0.000000 0.000000 11.133428 14.113725 -0.126507 -7.093032 -18.879283 -7.888811 8.638791 -68.384679 6.436507 -34.613750 -59.209110 157.360773 0.000000 0.000000 0.000000 0.000000 0.000000 0.000000 -2.738621 -1.252819 -1.754386 14.600944 -63.697966 -5.715740 6.391122 24.440677 -0.572435 -29.974971 -40.635099 2.655678 0.000000 0.000000 0.000000 0.000000 0.000000 0.000000 6.615459 -10.822446 24.590807 9.099026 18.977331 -4.510280 -8.988184 -5.858260 16.784890 0.000000 0.000000 0.000000 -0.395494 11.458229 21.919331 0.299813 2.704893 -0.398545 -3.086679 -12.008335 17.551055 0.000000 0.000000 0.000000
-3.080342 75.601984 208.670957 -4.057588 -6.225399 -32.151458 0.114847 -0.326417 31.740894 0.075904 -0.720985 -0.206194 -18.898128 -3.382768 16.608758 0.000000 0.000000 0.000000 13.398141 16.361505 -0.333559 -8.473227 -16.447327 -5.147562 8.381758 -71.752296 3.831370 -14.671792 -42.745621 135.989614 0.000000 0.000000 0.000000 0.000000 0.000000 0.000000 0.665388 -9.357153 -5.535691 8.317157 -61.754248 -7.015684 0.176237 20.887803 -0.636743 -0.865676 -49.297092 7.980567 0.000000 0.000000 0.000000 0.000000 0.000000 0.000000 9.559704 -9.040589 34.519159 10.377778 20.771040 -5.332839 -9.738841 -5.949233 18.431647 0.000000 0.000000 0.000000 -2.769662 15.863546 32.053761 -0.765513 1.202641 -0.248019 -2.672860 -12.922175 19.238811 0.000000 0.000000 0.000000
